<svg id="Layer_1" data-name="Layer 1" xmlns="http://www.w3.org/2000/svg" viewBox="0 0 150 150"><defs><style>.cls-1{fill:#d59b4a;fill-rule:evenodd;}</style></defs><path class="cls-1" d="M112.5,28.13h18.75V9.38H112.5Zm-37.5,0A46.3,46.3,0,0,0,47.16,37.5H0V28.13A28.09,28.09,0,0,1,28.13,0h93.74A28.09,28.09,0,0,1,150,28.13V37.5H102.84A46.3,46.3,0,0,0,75,28.13Zm0,18.75A28.13,28.13,0,1,1,46.88,75,28.08,28.08,0,0,1,75,46.88ZM121.87,150H28.13A28.08,28.08,0,0,1,0,121.88v-75H37.69a46.87,46.87,0,1,0,74.62,0H150v75A28.08,28.08,0,0,1,121.87,150Z"/></svg>