<svg id="Layer_1" data-name="Layer 1" xmlns="http://www.w3.org/2000/svg" viewBox="0 0 150 150"><defs><style>.cls-1{fill:#d59b4a;}</style></defs><path class="cls-1" d="M121.87,0H28.12A28.08,28.08,0,0,0,0,28.13v93.75A28.08,28.08,0,0,0,28.12,150h93.75A28.08,28.08,0,0,0,150,121.88V28.13A28.09,28.09,0,0,0,121.87,0ZM41.43,121.88H22.27V51.5H41.43ZM38.61,44.12a9,9,0,0,1-6.68,2.7,9.45,9.45,0,0,1-6.79-2.76,9.14,9.14,0,0,1-2.82-6.74,8.91,8.91,0,0,1,2.76-6.5,9.77,9.77,0,0,1,13.53.06,9.18,9.18,0,0,1,0,13.24Zm89.12,77.76h-19.1V93.69c0-8.61-.47-14.35-1.4-17.17a11.77,11.77,0,0,0-4.87-6.5,15.76,15.76,0,0,0-8.55-2.23,18,18,0,0,0-11.37,3.69,19.08,19.08,0,0,0-6.56,10.2c-.65,2.23-.94,7.15-.94,14.65v25.55H55.84V51.5H75v9.38c5-3.46,9.32-6.27,13.36-7.68a30.55,30.55,0,0,1,10.9-2,29.45,29.45,0,0,1,20.56,7.5c5,4.22,7.91,10.55,7.91,18.87Z"/></svg>