<svg id="Layer_1" data-name="Layer 1" xmlns="http://www.w3.org/2000/svg" viewBox="0 0 150 150"><defs><style>.cls-1{fill:#d59b4a;}</style></defs><path class="cls-1" d="M121.87,0H28.12A28.08,28.08,0,0,0,0,28.13v93.75A28.08,28.08,0,0,0,28.12,150h93.75A28.08,28.08,0,0,0,150,121.88V28.13A28.09,28.09,0,0,0,121.87,0Zm-71,106.43A31.43,31.43,0,1,1,82.09,75,31.32,31.32,0,0,1,50.87,106.43Zm49.86-1.84c-8.62,0-15.61-13.25-15.61-29.59s7-29.59,15.61-29.59,15.6,13.25,15.6,29.59S109.35,104.59,100.73,104.59Zm24.12-3.08c-3,0-5.49-11.87-5.49-26.51s2.46-26.51,5.49-26.51,5.49,11.87,5.49,26.51S127.88,101.51,124.85,101.51Z"/></svg>